<svg width="76" height="20" viewBox="0 0 76 20" fill="none" xmlns="http://www.w3.org/2000/svg">
<path d="M29.4814 18.919H12.8808L21.1811 1.08105L29.4814 18.919ZM14.3485 17.9907H28.0137L21.1811 3.28885L14.3485 17.9907Z" fill="#F2F2F2"/>
<path fill-rule="evenodd" clip-rule="evenodd" d="M21.1815 0C21.6043 0 21.9886 0.244472 22.1664 0.626495L30.4667 18.4644C30.6224 18.7992 30.596 19.19 30.3966 19.5009C30.1972 19.8118 29.8523 20 29.4818 20H12.8812C12.5108 20 12.1659 19.8118 11.9665 19.5009C11.767 19.19 11.7406 18.7992 11.8964 18.4644L20.1967 0.626495C20.3744 0.244472 20.7588 0 21.1815 0ZM16.0475 16.9097H26.3156L21.1815 5.86248L16.0475 16.9097Z" fill="#F2F2F2"/>
<path d="M35.1603 18.919V1.08105H36.0583V17.9707H47.8292V18.919H35.1603Z" fill="#F2F2F2"/>
<path fill-rule="evenodd" clip-rule="evenodd" d="M34.0751 1.08102C34.0751 0.483991 34.5611 0 35.1605 0H36.0585C36.658 0 37.144 0.483991 37.144 1.08102V16.8897H47.8294C48.4289 16.8897 48.9149 17.3737 48.9149 17.9707V18.919C48.9149 19.516 48.4289 20 47.8294 20H35.1605C34.5611 20 34.0751 19.516 34.0751 18.919V1.08102Z" fill="#F2F2F2"/>
<path d="M63.1192 1.08105V2.02934H56.7817V18.919H55.9142V2.02934H49.5767V1.08105H63.1192Z" fill="#F2F2F2"/>
<path fill-rule="evenodd" clip-rule="evenodd" d="M48.4915 1.08102C48.4915 0.483991 48.9774 0 49.5769 0H63.1195C63.719 0 64.205 0.483991 64.205 1.08102V2.0293C64.205 2.62634 63.719 3.11033 63.1195 3.11033H57.8674V18.919C57.8674 19.516 57.3814 20 56.782 20H55.9145C55.315 20 54.829 19.516 54.829 18.919V3.11033H49.5769C48.9774 3.11033 48.4915 2.62634 48.4915 2.0293V1.08102Z" fill="#F2F2F2"/>
<path d="M73.5878 10.0127L67.4883 3.91674L68.1518 3.25635L74.9149 10.0127L68.1518 16.7436L67.4883 16.0832L73.5878 10.0127Z" fill="#F2F2F2"/>
<path fill-rule="evenodd" clip-rule="evenodd" d="M68.1526 2.17529C68.4407 2.17556 68.7168 2.2899 68.9203 2.4931L75.6833 9.24942C76.1062 9.67187 76.1055 10.3556 75.6818 10.7773L68.9188 17.5082C68.495 17.93 67.8081 17.93 67.3843 17.5082L66.7207 16.8478C66.517 16.6451 66.4025 16.37 66.4025 16.0832C66.4025 15.7963 66.517 15.5213 66.7207 15.3185L72.0535 10.011L66.7191 4.67976C66.2964 4.25728 66.2971 3.57365 66.7207 3.15205L67.3843 2.49166C67.588 2.28884 67.8644 2.17502 68.1526 2.17529Z" fill="#F2F2F2"/>
<path d="M7.84879 3.25635L8.51234 3.91674L2.41284 10.0127L8.51234 16.0832L7.84879 16.7436L1.08575 10.0127L7.84879 3.25635Z" fill="#F2F2F2"/>
<path fill-rule="evenodd" clip-rule="evenodd" d="M7.84748 2.17529C8.13559 2.17502 8.41198 2.28884 8.61578 2.49166L9.27932 3.15205C9.70293 3.57365 9.70365 4.25728 9.28092 4.67976L3.94653 10.011L9.27932 15.3185C9.48304 15.5213 9.5975 15.7963 9.5975 16.0832C9.5975 16.37 9.48304 16.6451 9.27932 16.8478L8.61578 17.5082C8.19194 17.93 7.50506 17.93 7.08122 17.5082L0.318179 10.7773C-0.105495 10.3556 -0.106142 9.67187 0.316735 9.24942L7.07977 2.4931C7.28318 2.2899 7.55936 2.17556 7.84748 2.17529Z" fill="#F2F2F2"/>
</svg>
