<svg width="1366" height="187" viewBox="0 0 1366 187" fill="none" xmlns="http://www.w3.org/2000/svg">
<path d="M0 177.012C1.98798 173.467 7.91223 172.345 11.1573 171.042C23.9701 165.901 35.9982 159.316 48.3804 153.132C65.7702 144.448 86.8275 136.125 105.994 133.37C128.984 130.065 153.785 132.885 176.689 135.428C226.127 140.919 275.694 148.576 324.331 159.514C393.314 175.028 467.963 195.019 538.821 180.306C562.427 175.405 585.507 169.847 609.42 166.719C642.183 162.434 673.311 152.47 705.603 145.824C755.464 135.563 804.009 125.135 855.073 125.135C896.596 125.135 936.643 139.179 977.803 143.663C1037.12 150.125 1101.76 144.789 1159.11 128.017C1216.42 111.256 1273.22 86.0507 1322.14 49.5836C1339.52 36.6302 1356.43 21.4905 1366 1" stroke="#BFD9B6" stroke-width="2" stroke-linecap="round"/>
</svg>
