<svg width="360" height="187" viewBox="0 0 360 187" fill="none" xmlns="http://www.w3.org/2000/svg">
<path d="M-503 177.012C-501.012 173.467 -495.088 172.345 -491.843 171.042C-479.03 165.901 -467.002 159.316 -454.62 153.132C-437.23 144.448 -416.173 136.125 -397.006 133.37C-374.016 130.065 -349.215 132.885 -326.311 135.428C-276.873 140.919 -227.306 148.576 -178.669 159.514C-109.686 175.028 -35.037 195.019 35.8207 180.306C59.4274 175.405 82.5074 169.847 106.42 166.719C139.183 162.434 170.311 152.47 202.603 145.824C252.464 135.563 301.009 125.135 352.073 125.135C393.596 125.135 433.643 139.179 474.803 143.663C534.123 150.125 598.763 144.789 656.109 128.017C713.42 111.256 770.224 86.0507 819.14 49.5836C836.516 36.6302 853.426 21.4905 863 1" stroke="#BFD9B6" stroke-width="2" stroke-linecap="round"/>
</svg>
