<svg width="1366" height="344" viewBox="0 0 1366 344" fill="none" xmlns="http://www.w3.org/2000/svg">
<path d="M0 51.5917C23.6829 17.266 74.8618 1 112.569 1C152.475 1 190.22 20.3586 226.221 37.8308C291.604 69.5626 366.368 103.892 439.252 97.7314C490.884 93.3671 534.282 60.4763 587.416 62.7219C622.598 64.2088 651.801 78.7465 679.748 101.779C698.947 117.601 722.277 133.988 733.051 159.049C749.278 196.795 703.955 207.475 692.772 184.929C681.589 162.384 712.036 130.453 722.751 123.634C758.529 100.867 799.506 121.047 830.803 144.883C897.858 195.952 947.424 278.01 1026.49 306.574C1091.6 330.096 1155.09 343 1223.26 343C1272.15 343 1317.72 334.791 1366 328.43" stroke="#EEAEAE" stroke-width="2" stroke-linecap="round"/>
</svg>
