<svg width="360" height="344" viewBox="0 0 360 344" fill="none" xmlns="http://www.w3.org/2000/svg">
<path d="M-503 51.5917C-479.317 17.266 -428.138 1 -390.431 1C-350.525 1 -312.78 20.3586 -276.779 37.8308C-211.396 69.5626 -136.632 103.892 -63.7479 97.7314C-12.1165 93.3671 31.2817 60.4763 84.4161 62.7219C119.598 64.2088 148.801 78.7465 176.748 101.779C195.947 117.601 219.277 133.988 230.051 159.049C246.278 196.795 200.955 207.475 189.772 184.929C178.589 162.384 209.036 130.453 219.751 123.634C255.529 100.867 296.506 121.047 327.803 144.883C394.858 195.952 444.424 278.01 523.488 306.574C588.595 330.096 652.091 343 720.257 343C769.148 343 814.723 334.791 863 328.43" stroke="#EEAEAE" stroke-width="2" stroke-linecap="round"/>
</svg>
